<svg width="375" height="374.999991" xmlns="http://www.w3.org/2000/svg" version="1.2">
 <defs>
  <clipPath id="clip1">
   <path id="svg_1" d="m61.22656,4.4375l102.77344,0l0,366l-102.77344,0l0,-366zm0,0"/>
  </clipPath>
  <clipPath id="clip2">
   <path id="svg_2" d="m207.15625,4.4375l102.84375,0l0,366l-102.84375,0l0,-366zm0,0"/>
  </clipPath>
 </defs>
 <g>
  <title>Layer 1</title>
  <g id="surface1">
   <g id="svg_3" clip-rule="nonzero" clip-path="url(#clip1)">
    <path id="svg_4" fill="#000000" fill-rule="nonzero" d="m106.02734,26.5625c-12.23437,0 -22.1914,9.93359 -22.1914,22.14844l0,277.42578c0,12.20703 9.95703,22.14453 22.1914,22.14453l13.32032,0c12.23437,0 22.1914,-9.9375 22.1914,-22.14453l0,-277.42578c0,-12.21485 -9.95703,-22.14844 -22.1914,-22.14844l-13.32032,0zm13.32032,343.86328l-13.32032,0c-24.47265,0 -44.3789,-19.86719 -44.3789,-44.28906l0,-277.42578c0,-24.42578 19.90625,-44.29297 44.3789,-44.29297l13.32032,0c24.47656,0 44.38281,19.86719 44.38281,44.29297l0,277.42578c0,24.42187 -19.90625,44.28906 -44.38281,44.28906"/>
   </g>
   <g id="svg_5" clip-rule="nonzero" clip-path="url(#clip2)">
    <path id="svg_6" fill="#000000" fill-rule="nonzero" d="m251.95703,26.5625c-12.23047,0 -22.1875,9.93359 -22.1875,22.14844l0,277.42578c0,12.20703 9.95703,22.14453 22.1875,22.14453l13.32031,0c12.23438,0 22.19141,-9.9375 22.19141,-22.14453l0,-277.42578c0,-12.21485 -9.95703,-22.14844 -22.19141,-22.14844l-13.32031,0zm13.32031,343.86328l-13.32031,0c-24.47265,0 -44.3789,-19.86719 -44.3789,-44.28906l0,-277.42578c0,-24.42578 19.90625,-44.29297 44.3789,-44.29297l13.32031,0c24.47657,0 44.38282,19.86719 44.38282,44.29297l0,277.42578c0,24.42187 -19.90625,44.28906 -44.38282,44.28906"/>
   </g>
  </g>
  <path d="m105.49999,25.3c-3,3 -10.73579,11.23542 -17,18c-1.92178,2.07528 -5,5 -5,5c0,1 -2,2 -1,2c2,0 1.72399,-5.22273 5,-9c3.70638,-4.27349 5,-7 6,-9l2,-1l1,0l0,-1" id="svg_7" stroke="#000" fill="none"/>
  <line stroke-linecap="undefined" stroke-linejoin="undefined" id="svg_8" y2="57.3" x2="116.49999" y1="40.3" x1="100.49999" stroke="#000" fill="none"/>
  <path d="m114.49999,85.3c0,2 -1.29364,7.82645 -2,18c-1.17953,16.98849 5.49583,36.83227 7,57.00001c0.96689,12.96399 0,19 0,20c0,0 -0.76951,0.60901 -3,-3c-3.32501,-5.37999 -3.49949,-11.96599 -4,-23c-0.45315,-9.98973 -0.06161,-22.00706 1,-31.00001c1.89037,-16.01332 3,-20 3,-21c0,-1 0.66457,1.84342 2,9c2.02611,10.85794 2,21.00001 2,27.00001c0,4 -4.41643,18.39389 -12,29c-3.72427,5.20863 -5.75732,5.54082 -7,3c-3.54217,-7.24245 -2.99906,-17.93492 -4,-41c-0.95382,-21.97932 -1.01411,-41.46803 4,-51.00001c1.67856,-3.19099 2.48692,-3.91948 5,-2c2.86536,2.18855 6.49674,6.4088 11,20c6.1069,18.43111 7,36.00001 7,46.00001c0,3 0.30745,6.186 -1,8c-0.8269,1.14726 -1.91912,-0.02757 -4,-6c-3.85103,-11.05304 -7,-22.00001 -8,-35.00001l0,-5l0,-2" id="svg_9" stroke="#000" fill="none"/>
  <rect id="svg_10" height="333" width="63" y="21.3" x="82.49999" fill="#000000"/>
  <rect id="svg_11" height="324" width="63" y="24.3" x="228.49999" fill="#000000"/>
 </g>
</svg>